<svg width="37" height="28" viewBox="0 0 37 28" fill="none" xmlns="http://www.w3.org/2000/svg">
<path d="M5.05028e-09 3.49874C5.05028e-09 2.57082 0.365457 1.6809 1.01597 1.02476C1.66649 0.368616 2.54878 0 3.46875 0H24.2812C25.2012 0 26.0835 0.368616 26.734 1.02476C27.3845 1.6809 27.75 2.57082 27.75 3.49874V6.99748H30.1088C30.6285 6.99795 31.1414 7.1162 31.6097 7.3435C32.078 7.5708 32.4897 7.90133 32.8144 8.31068L36.2392 12.6258C36.732 13.2467 37.0003 14.0184 37 14.8137V19.8262C37 20.7541 36.6345 21.644 35.984 22.3002C35.3335 22.9563 34.4512 23.3249 33.5312 23.3249H32.375C32.375 24.5622 31.8877 25.7487 31.0204 26.6236C30.153 27.4984 28.9766 27.9899 27.75 27.9899C26.5234 27.9899 25.347 27.4984 24.4796 26.6236C23.6123 25.7487 23.125 24.5622 23.125 23.3249H11.5625C11.5638 23.9467 11.4419 24.5625 11.2039 25.1361C10.9659 25.7097 10.6166 26.2295 10.1765 26.665C9.73644 27.1005 9.21451 27.4428 8.6414 27.6719C8.06828 27.901 7.45554 28.0122 6.8392 27.9989C6.22286 27.9857 5.61537 27.8484 5.05242 27.5949C4.48947 27.3415 3.98244 26.9771 3.56113 26.5231C3.13982 26.0692 2.81273 25.5349 2.5991 24.9516C2.38546 24.3683 2.28959 23.7479 2.31712 23.1267C1.63967 22.8862 1.05293 22.4395 0.63789 21.8483C0.222846 21.2571 -3.87389e-05 20.5506 5.05028e-09 19.8262L5.05028e-09 3.49874ZM2.99238 20.8898C3.41048 20.1994 3.9995 19.6306 4.70154 19.2393C5.40358 18.848 6.19449 18.6476 6.99653 18.658C7.79857 18.6683 8.58414 18.889 9.27602 19.2983C9.96791 19.7076 10.5423 20.2914 10.9427 20.9924H23.7447C24.1515 20.284 24.7351 19.6954 25.4375 19.2851V3.49874C25.4375 3.18943 25.3157 2.89279 25.0988 2.67408C24.882 2.45537 24.5879 2.33249 24.2812 2.33249H3.46875C3.16209 2.33249 2.868 2.45537 2.65116 2.67408C2.43432 2.89279 2.3125 3.18943 2.3125 3.49874V19.8262C2.31232 20.0507 2.37637 20.2704 2.49697 20.4591C2.61757 20.6478 2.78959 20.7973 2.99238 20.8898ZM27.75 18.66C28.5618 18.66 29.3594 18.8755 30.0624 19.285C30.7655 19.6944 31.3493 20.2833 31.7553 20.9924H33.5312C33.8379 20.9924 34.132 20.8696 34.3488 20.6509C34.5657 20.4321 34.6875 20.1355 34.6875 19.8262V14.8113C34.687 14.5467 34.5973 14.29 34.4331 14.0836L31.0106 9.76849C30.9025 9.6319 30.7653 9.52157 30.6092 9.44567C30.4531 9.36976 30.282 9.33023 30.1088 9.32998H27.75V18.66ZM6.9375 20.9924C6.32419 20.9924 5.73599 21.2382 5.30232 21.6756C4.86864 22.113 4.625 22.7063 4.625 23.3249C4.625 23.9436 4.86864 24.5368 5.30232 24.9743C5.73599 25.4117 6.32419 25.6574 6.9375 25.6574C7.55081 25.6574 8.13901 25.4117 8.57268 24.9743C9.00636 24.5368 9.25 23.9436 9.25 23.3249C9.25 22.7063 9.00636 22.113 8.57268 21.6756C8.13901 21.2382 7.55081 20.9924 6.9375 20.9924ZM27.75 20.9924C27.1367 20.9924 26.5485 21.2382 26.1148 21.6756C25.6811 22.113 25.4375 22.7063 25.4375 23.3249C25.4375 23.9436 25.6811 24.5368 26.1148 24.9743C26.5485 25.4117 27.1367 25.6574 27.75 25.6574C28.3633 25.6574 28.9515 25.4117 29.3852 24.9743C29.8189 24.5368 30.0625 23.9436 30.0625 23.3249C30.0625 22.7063 29.8189 22.113 29.3852 21.6756C28.9515 21.2382 28.3633 20.9924 27.75 20.9924Z" fill="white"/>
</svg>
