<svg width="62" height="62" viewBox="0 0 62 62" fill="none" xmlns="http://www.w3.org/2000/svg">
<circle cx="31" cy="31" r="31" fill="#C4C4C4"/>
<path d="M12 20.4987C12 19.5708 12.3655 18.6809 13.016 18.0248C13.6665 17.3686 14.5488 17 15.4688 17H36.2812C37.2012 17 38.0835 17.3686 38.734 18.0248C39.3845 18.6809 39.75 19.5708 39.75 20.4987V23.9975H42.1088C42.6285 23.998 43.1414 24.1162 43.6097 24.3435C44.078 24.5708 44.4897 24.9013 44.8144 25.3107L48.2392 29.6258C48.732 30.2467 49.0003 31.0184 49 31.8137V36.8262C49 37.7541 48.6345 38.644 47.984 39.3002C47.3335 39.9563 46.4512 40.3249 45.5312 40.3249H44.375C44.375 41.5622 43.8877 42.7487 43.0204 43.6236C42.153 44.4984 40.9766 44.9899 39.75 44.9899C38.5234 44.9899 37.347 44.4984 36.4796 43.6236C35.6123 42.7487 35.125 41.5622 35.125 40.3249H23.5625C23.5638 40.9467 23.4419 41.5625 23.2039 42.1361C22.9659 42.7097 22.6166 43.2295 22.1765 43.665C21.7364 44.1005 21.2145 44.4428 20.6414 44.6719C20.0683 44.901 19.4555 45.0122 18.8392 44.9989C18.2229 44.9857 17.6154 44.8484 17.0524 44.5949C16.4895 44.3415 15.9824 43.9771 15.5611 43.5231C15.1398 43.0692 14.8127 42.5349 14.5991 41.9516C14.3855 41.3683 14.2896 40.7479 14.3171 40.1267C13.6397 39.8862 13.0529 39.4395 12.6379 38.8483C12.2228 38.2571 12 37.5506 12 36.8262V20.4987ZM14.9924 37.8898C15.4105 37.1994 15.9995 36.6306 16.7015 36.2393C17.4036 35.848 18.1945 35.6476 18.9965 35.658C19.7986 35.6683 20.5841 35.889 21.276 36.2983C21.9679 36.7076 22.5423 37.2914 22.9427 37.9924H35.7447C36.1515 37.284 36.7351 36.6954 37.4375 36.2851V20.4987C37.4375 20.1894 37.3157 19.8928 37.0988 19.6741C36.882 19.4554 36.5879 19.3325 36.2812 19.3325H15.4688C15.1621 19.3325 14.868 19.4554 14.6512 19.6741C14.4343 19.8928 14.3125 20.1894 14.3125 20.4987V36.8262C14.3123 37.0507 14.3764 37.2704 14.497 37.4591C14.6176 37.6478 14.7896 37.7973 14.9924 37.8898ZM39.75 35.66C40.5618 35.66 41.3594 35.8755 42.0624 36.285C42.7655 36.6944 43.3493 37.2833 43.7553 37.9924H45.5312C45.8379 37.9924 46.132 37.8696 46.3488 37.6509C46.5657 37.4321 46.6875 37.1355 46.6875 36.8262V31.8113C46.687 31.5467 46.5973 31.29 46.4331 31.0836L43.0106 26.7685C42.9025 26.6319 42.7653 26.5216 42.6092 26.4457C42.4531 26.3698 42.282 26.3302 42.1088 26.33H39.75V35.66ZM18.9375 37.9924C18.3242 37.9924 17.736 38.2382 17.3023 38.6756C16.8686 39.113 16.625 39.7063 16.625 40.3249C16.625 40.9436 16.8686 41.5368 17.3023 41.9743C17.736 42.4117 18.3242 42.6574 18.9375 42.6574C19.5508 42.6574 20.139 42.4117 20.5727 41.9743C21.0064 41.5368 21.25 40.9436 21.25 40.3249C21.25 39.7063 21.0064 39.113 20.5727 38.6756C20.139 38.2382 19.5508 37.9924 18.9375 37.9924ZM39.75 37.9924C39.1367 37.9924 38.5485 38.2382 38.1148 38.6756C37.6811 39.113 37.4375 39.7063 37.4375 40.3249C37.4375 40.9436 37.6811 41.5368 38.1148 41.9743C38.5485 42.4117 39.1367 42.6574 39.75 42.6574C40.3633 42.6574 40.9515 42.4117 41.3852 41.9743C41.8189 41.5368 42.0625 40.9436 42.0625 40.3249C42.0625 39.7063 41.8189 39.113 41.3852 38.6756C40.9515 38.2382 40.3633 37.9924 39.75 37.9924Z" fill="white"/>
</svg>
