<svg width="22" height="26" viewBox="0 0 22 26" fill="none" xmlns="http://www.w3.org/2000/svg">
    <path d="M7 19H10.6M1 3.4V22.6C1 23.2365 1.25286 23.847 1.70294 24.2971C2.15303 24.7471 2.76348 25 3.4 25H17.8C18.4365 25 19.047 24.7471 19.4971 24.2971C19.9471 23.847 20.2 23.2365 20.2 22.6V8.6104C20.2 8.29067 20.136 7.97417 20.012 7.67949C19.8879 7.38481 19.7062 7.11789 19.4776 6.8944L14.1496 1.684C13.7012 1.24559 13.0991 1.00008 12.472 1H3.4C2.76348 1 2.15303 1.25286 1.70294 1.70294C1.25286 2.15303 1 2.76348 1 3.4V3.4ZM7 14.2H14.2H7Z" stroke="#3C924E" stroke-width="2" stroke-linecap="round" stroke-linejoin="round"/>
    <path d="M13 1V5.8C13 6.43652 13.2529 7.04697 13.7029 7.49706C14.153 7.94714 14.7635 8.2 15.4 8.2H20.2" stroke="#3C924E" stroke-width="2" stroke-linejoin="round"/>
</svg>
