<svg width="31" height="30" viewBox="0 0 31 30" fill="none" xmlns="http://www.w3.org/2000/svg">
    <path d="M1.82051 19.9878L0.0444456 27.6529C-0.0168227 27.9331 -0.0147224 28.2234 0.0505929 28.5027C0.115908 28.782 0.242789 29.0432 0.421965 29.2672C0.601142 29.4911 0.828089 29.6722 1.08623 29.7973C1.34436 29.9223 1.62717 29.9881 1.91399 29.9898C2.04763 30.0033 2.1823 30.0033 2.31594 29.9898L10.0278 28.2138L24.8346 13.4631L16.5712 5.21838L1.82051 19.9878Z" fill="white"/>
    <path d="M29.4899 6.07843L23.9748 0.563281C23.6122 0.20252 23.1215 0 22.61 0C22.0985 0 21.6078 0.20252 21.2452 0.563281L18.1792 3.62933L26.4332 11.8834L29.4993 8.81731C29.6787 8.63698 29.8208 8.42303 29.9175 8.18771C30.0141 7.95239 30.0634 7.70033 30.0626 7.44593C30.0617 7.19154 30.0107 6.93982 29.9124 6.70517C29.8142 6.47051 29.6706 6.25754 29.4899 6.07843Z" fill="white"/>
</svg>
