<svg width="23" height="23" viewBox="0 0 23 23" fill="none" xmlns="http://www.w3.org/2000/svg">
    <path d="M21.5582 23C9.29488 23.0172 -0.012924 13.5987 1.34704e-05 1.44181C1.34704e-05 0.646874 0.644013 0 1.43751 0H5.23251C5.94407 0 6.54926 0.52325 6.6542 1.22762C6.90447 2.91676 7.39583 4.56125 8.11326 6.11081L8.26132 6.42993C8.36078 6.64468 8.38217 6.8874 8.32182 7.11624C8.26146 7.34507 8.12313 7.54567 7.9307 7.68343C6.75482 8.52293 6.30632 10.212 7.22201 11.5287C8.37486 13.1866 9.81374 14.626 11.4713 15.7794C12.7894 16.6937 14.4785 16.2452 15.3166 15.0707C15.4542 14.8777 15.6549 14.7389 15.8841 14.6782C16.1133 14.6176 16.3564 14.639 16.5715 14.7387L16.8892 14.8853C18.4388 15.604 20.0833 16.0957 21.7724 16.3458C22.4768 16.4507 23 17.0559 23 17.7689V21.5625C23 21.7514 22.9628 21.9384 22.8904 22.1129C22.8181 22.2874 22.7121 22.4459 22.5785 22.5795C22.4448 22.713 22.2862 22.8188 22.1116 22.891C21.937 22.9631 21.75 23.0002 21.5611 23H21.5582Z" fill="#3C924E"/>
</svg>
