<svg width="29" height="30" viewBox="0 0 29 30" fill="none" xmlns="http://www.w3.org/2000/svg">
    <path d="M27.6299 5.4H22.8247V2.4C22.8247 1.07625 21.7473 0 20.4221 0H8.40909C7.08391 0 6.00649 1.07625 6.00649 2.4V5.4H1.2013C0.53683 5.4 0 5.93625 0 6.6V7.8C0 7.965 0.135146 8.1 0.300325 8.1H2.56778L3.49503 27.7125C3.55509 28.9913 4.61374 30 5.89387 30H22.9373C24.2212 30 25.2761 28.995 25.3361 27.7125L26.2634 8.1H28.5308C28.696 8.1 28.8312 7.965 28.8312 7.8V6.6C28.8312 5.93625 28.2943 5.4 27.6299 5.4ZM20.1218 5.4H8.70942V2.7H20.1218V5.4Z" fill="#3C924E"/>
</svg>
